<mxfile host="65bd71144e">
    <diagram name="Page-1" id="ee8GucKMwhRsPF9MjmTV">
        <mxGraphModel dx="2983" dy="1670" grid="1" gridSize="10" guides="1" tooltips="1" connect="1" arrows="1" fold="1" page="1" pageScale="1" pageWidth="850" pageHeight="1100" math="0" shadow="0">
            <root>
                <mxCell id="0"/>
                <mxCell id="1" parent="0"/>
                <mxCell id="qGfMKpQDj4KVWiZ2LK5q-127" value="" style="rounded=1;whiteSpace=wrap;html=1;arcSize=2;" parent="1" vertex="1">
                    <mxGeometry x="1540" y="611" width="710" height="370" as="geometry"/>
                </mxCell>
                <mxCell id="qGfMKpQDj4KVWiZ2LK5q-164" value="" style="rounded=1;whiteSpace=wrap;html=1;fillColor=#999999;" parent="1" vertex="1">
                    <mxGeometry x="1886.25" y="876" width="28" height="10" as="geometry"/>
                </mxCell>
                <mxCell id="qGfMKpQDj4KVWiZ2LK5q-149" value="" style="shape=cube;whiteSpace=wrap;html=1;boundedLbl=1;backgroundOutline=1;darkOpacity=0.05;darkOpacity2=0.1;" parent="1" vertex="1">
                    <mxGeometry x="1660" y="728" width="400" height="89" as="geometry"/>
                </mxCell>
                <mxCell id="YWgGbhT9v-dE-4aeQCzL-33" value="" style="rounded=1;whiteSpace=wrap;html=1;fillColor=#FFFFFF;strokeColor=#1A1A1A;arcSize=3;movable=1;resizable=1;rotatable=1;deletable=1;editable=1;locked=0;connectable=1;" parent="1" vertex="1">
                    <mxGeometry x="270" y="170" width="500" height="560" as="geometry"/>
                </mxCell>
                <mxCell id="qGfMKpQDj4KVWiZ2LK5q-117" value="" style="group" parent="1" vertex="1" connectable="0">
                    <mxGeometry x="660" y="635" width="70" height="95" as="geometry"/>
                </mxCell>
                <mxCell id="qGfMKpQDj4KVWiZ2LK5q-118" value="" style="endArrow=none;html=1;rounded=0;exitX=0.5;exitY=0;exitDx=0;exitDy=0;strokeWidth=3;" parent="qGfMKpQDj4KVWiZ2LK5q-117" source="qGfMKpQDj4KVWiZ2LK5q-121" edge="1">
                    <mxGeometry width="50" height="50" relative="1" as="geometry">
                        <mxPoint x="158" y="83" as="sourcePoint"/>
                        <mxPoint x="34" as="targetPoint"/>
                    </mxGeometry>
                </mxCell>
                <mxCell id="qGfMKpQDj4KVWiZ2LK5q-119" value="" style="group" parent="qGfMKpQDj4KVWiZ2LK5q-117" vertex="1" connectable="0">
                    <mxGeometry x="11.699999999999989" y="27" width="45.7" height="35" as="geometry"/>
                </mxCell>
                <mxCell id="qGfMKpQDj4KVWiZ2LK5q-120" value="" style="rounded=0;whiteSpace=wrap;html=1;fontColor=#CCCCCC;fillColor=#CCCCCC;" parent="qGfMKpQDj4KVWiZ2LK5q-119" vertex="1">
                    <mxGeometry x="3.237397034596385" y="6.3" width="40.95683690280067" height="22.4" as="geometry"/>
                </mxCell>
                <mxCell id="qGfMKpQDj4KVWiZ2LK5q-121" value="" style="ellipse;whiteSpace=wrap;html=1;aspect=fixed;fontColor=#CCCCCC;fillColor=#0066CC;" parent="qGfMKpQDj4KVWiZ2LK5q-119" vertex="1">
                    <mxGeometry x="8.055848434925858" y="3.5" width="28" height="28" as="geometry"/>
                </mxCell>
                <mxCell id="qGfMKpQDj4KVWiZ2LK5q-122" value="" style="rounded=1;whiteSpace=wrap;html=1;fontColor=#CCCCCC;fillColor=#CCCCCC;" parent="qGfMKpQDj4KVWiZ2LK5q-119" vertex="1">
                    <mxGeometry width="7.528830313014829" height="35" as="geometry"/>
                </mxCell>
                <mxCell id="qGfMKpQDj4KVWiZ2LK5q-123" value="" style="rounded=1;whiteSpace=wrap;html=1;fontColor=#CCCCCC;fillColor=#CCCCCC;" parent="qGfMKpQDj4KVWiZ2LK5q-119" vertex="1">
                    <mxGeometry x="38.17116968698517" width="7.528830313014829" height="35" as="geometry"/>
                </mxCell>
                <mxCell id="qGfMKpQDj4KVWiZ2LK5q-124" value="" style="ellipse;whiteSpace=wrap;html=1;aspect=fixed;fontColor=#CCCCCC;fillColor=#FFFFFF;" parent="qGfMKpQDj4KVWiZ2LK5q-119" vertex="1">
                    <mxGeometry x="11.820263591433273" y="7" width="21" height="21" as="geometry"/>
                </mxCell>
                <mxCell id="qGfMKpQDj4KVWiZ2LK5q-125" value="" style="rounded=0;whiteSpace=wrap;html=1;fillColor=#4D4D4D;" parent="qGfMKpQDj4KVWiZ2LK5q-119" vertex="1">
                    <mxGeometry x="15.579999999999998" y="12.6" width="13.42" height="7.4" as="geometry"/>
                </mxCell>
                <mxCell id="qGfMKpQDj4KVWiZ2LK5q-126" value="&lt;b&gt;&lt;font style=&quot;color: rgb(0, 0, 0);&quot;&gt;Sensor 03&lt;/font&gt;&lt;/b&gt;" style="rounded=0;whiteSpace=wrap;html=1;strokeColor=none;fillColor=none;" parent="qGfMKpQDj4KVWiZ2LK5q-117" vertex="1">
                    <mxGeometry y="64" width="70" height="20" as="geometry"/>
                </mxCell>
                <mxCell id="qGfMKpQDj4KVWiZ2LK5q-96" value="" style="group" parent="1" vertex="1" connectable="0">
                    <mxGeometry x="480" y="636" width="70" height="95" as="geometry"/>
                </mxCell>
                <mxCell id="qGfMKpQDj4KVWiZ2LK5q-97" value="" style="endArrow=none;html=1;rounded=0;exitX=0.5;exitY=0;exitDx=0;exitDy=0;strokeWidth=3;" parent="qGfMKpQDj4KVWiZ2LK5q-96" source="qGfMKpQDj4KVWiZ2LK5q-100" edge="1">
                    <mxGeometry width="50" height="50" relative="1" as="geometry">
                        <mxPoint x="158" y="83" as="sourcePoint"/>
                        <mxPoint x="34" as="targetPoint"/>
                    </mxGeometry>
                </mxCell>
                <mxCell id="qGfMKpQDj4KVWiZ2LK5q-98" value="" style="group" parent="qGfMKpQDj4KVWiZ2LK5q-96" vertex="1" connectable="0">
                    <mxGeometry x="11.699999999999989" y="27" width="45.7" height="35" as="geometry"/>
                </mxCell>
                <mxCell id="qGfMKpQDj4KVWiZ2LK5q-99" value="" style="rounded=0;whiteSpace=wrap;html=1;fontColor=#CCCCCC;fillColor=#CCCCCC;" parent="qGfMKpQDj4KVWiZ2LK5q-98" vertex="1">
                    <mxGeometry x="3.237397034596385" y="6.3" width="40.95683690280067" height="22.4" as="geometry"/>
                </mxCell>
                <mxCell id="qGfMKpQDj4KVWiZ2LK5q-100" value="" style="ellipse;whiteSpace=wrap;html=1;aspect=fixed;fontColor=#CCCCCC;fillColor=#0066CC;" parent="qGfMKpQDj4KVWiZ2LK5q-98" vertex="1">
                    <mxGeometry x="8.055848434925858" y="3.5" width="28" height="28" as="geometry"/>
                </mxCell>
                <mxCell id="qGfMKpQDj4KVWiZ2LK5q-101" value="" style="rounded=1;whiteSpace=wrap;html=1;fontColor=#CCCCCC;fillColor=#CCCCCC;" parent="qGfMKpQDj4KVWiZ2LK5q-98" vertex="1">
                    <mxGeometry width="7.528830313014829" height="35" as="geometry"/>
                </mxCell>
                <mxCell id="qGfMKpQDj4KVWiZ2LK5q-102" value="" style="rounded=1;whiteSpace=wrap;html=1;fontColor=#CCCCCC;fillColor=#CCCCCC;" parent="qGfMKpQDj4KVWiZ2LK5q-98" vertex="1">
                    <mxGeometry x="38.17116968698517" width="7.528830313014829" height="35" as="geometry"/>
                </mxCell>
                <mxCell id="qGfMKpQDj4KVWiZ2LK5q-103" value="" style="ellipse;whiteSpace=wrap;html=1;aspect=fixed;fontColor=#CCCCCC;fillColor=#FFFFFF;" parent="qGfMKpQDj4KVWiZ2LK5q-98" vertex="1">
                    <mxGeometry x="11.820263591433273" y="7" width="21" height="21" as="geometry"/>
                </mxCell>
                <mxCell id="qGfMKpQDj4KVWiZ2LK5q-104" value="" style="rounded=0;whiteSpace=wrap;html=1;fillColor=#4D4D4D;" parent="qGfMKpQDj4KVWiZ2LK5q-98" vertex="1">
                    <mxGeometry x="15.579999999999998" y="12.6" width="13.42" height="7.4" as="geometry"/>
                </mxCell>
                <mxCell id="qGfMKpQDj4KVWiZ2LK5q-105" value="&lt;b&gt;&lt;font style=&quot;color: rgb(0, 0, 0);&quot;&gt;Sensor 02&lt;/font&gt;&lt;/b&gt;" style="rounded=0;whiteSpace=wrap;html=1;strokeColor=none;fillColor=none;" parent="qGfMKpQDj4KVWiZ2LK5q-96" vertex="1">
                    <mxGeometry y="64" width="70" height="20" as="geometry"/>
                </mxCell>
                <mxCell id="qGfMKpQDj4KVWiZ2LK5q-95" value="" style="group" parent="1" vertex="1" connectable="0">
                    <mxGeometry x="313" y="637" width="70" height="95" as="geometry"/>
                </mxCell>
                <mxCell id="qGfMKpQDj4KVWiZ2LK5q-94" value="" style="endArrow=none;html=1;rounded=0;exitX=0.5;exitY=0;exitDx=0;exitDy=0;strokeWidth=3;" parent="qGfMKpQDj4KVWiZ2LK5q-95" source="qGfMKpQDj4KVWiZ2LK5q-84" edge="1">
                    <mxGeometry width="50" height="50" relative="1" as="geometry">
                        <mxPoint x="158" y="83" as="sourcePoint"/>
                        <mxPoint x="34" as="targetPoint"/>
                    </mxGeometry>
                </mxCell>
                <mxCell id="qGfMKpQDj4KVWiZ2LK5q-92" value="" style="group" parent="qGfMKpQDj4KVWiZ2LK5q-95" vertex="1" connectable="0">
                    <mxGeometry x="11.699999999999989" y="27" width="45.7" height="35" as="geometry"/>
                </mxCell>
                <mxCell id="qGfMKpQDj4KVWiZ2LK5q-87" value="" style="rounded=0;whiteSpace=wrap;html=1;fontColor=#CCCCCC;fillColor=#CCCCCC;" parent="qGfMKpQDj4KVWiZ2LK5q-92" vertex="1">
                    <mxGeometry x="3.237397034596385" y="6.3" width="40.95683690280067" height="22.4" as="geometry"/>
                </mxCell>
                <mxCell id="qGfMKpQDj4KVWiZ2LK5q-84" value="" style="ellipse;whiteSpace=wrap;html=1;aspect=fixed;fontColor=#CCCCCC;fillColor=#0066CC;" parent="qGfMKpQDj4KVWiZ2LK5q-92" vertex="1">
                    <mxGeometry x="8.055848434925858" y="3.5" width="28" height="28" as="geometry"/>
                </mxCell>
                <mxCell id="qGfMKpQDj4KVWiZ2LK5q-85" value="" style="rounded=1;whiteSpace=wrap;html=1;fontColor=#CCCCCC;fillColor=#CCCCCC;" parent="qGfMKpQDj4KVWiZ2LK5q-92" vertex="1">
                    <mxGeometry width="7.528830313014829" height="35" as="geometry"/>
                </mxCell>
                <mxCell id="qGfMKpQDj4KVWiZ2LK5q-86" value="" style="rounded=1;whiteSpace=wrap;html=1;fontColor=#CCCCCC;fillColor=#CCCCCC;" parent="qGfMKpQDj4KVWiZ2LK5q-92" vertex="1">
                    <mxGeometry x="38.17116968698517" width="7.528830313014829" height="35" as="geometry"/>
                </mxCell>
                <mxCell id="qGfMKpQDj4KVWiZ2LK5q-88" value="" style="ellipse;whiteSpace=wrap;html=1;aspect=fixed;fontColor=#CCCCCC;fillColor=#FFFFFF;" parent="qGfMKpQDj4KVWiZ2LK5q-92" vertex="1">
                    <mxGeometry x="11.820263591433273" y="7" width="21" height="21" as="geometry"/>
                </mxCell>
                <mxCell id="qGfMKpQDj4KVWiZ2LK5q-91" value="" style="rounded=0;whiteSpace=wrap;html=1;fillColor=#4D4D4D;" parent="qGfMKpQDj4KVWiZ2LK5q-92" vertex="1">
                    <mxGeometry x="15.579999999999998" y="12.6" width="13.42" height="7.4" as="geometry"/>
                </mxCell>
                <mxCell id="qGfMKpQDj4KVWiZ2LK5q-93" value="&lt;b&gt;&lt;font style=&quot;color: rgb(0, 0, 0);&quot;&gt;Sensor 01&lt;/font&gt;&lt;/b&gt;" style="rounded=0;whiteSpace=wrap;html=1;strokeColor=none;fillColor=none;" parent="qGfMKpQDj4KVWiZ2LK5q-95" vertex="1">
                    <mxGeometry y="64" width="70" height="20" as="geometry"/>
                </mxCell>
                <mxCell id="qGfMKpQDj4KVWiZ2LK5q-80" value="" style="rounded=1;whiteSpace=wrap;html=1;arcSize=2;" parent="1" vertex="1">
                    <mxGeometry x="1540" y="170" width="620" height="414" as="geometry"/>
                </mxCell>
                <mxCell id="YWgGbhT9v-dE-4aeQCzL-59" value="" style="rounded=1;whiteSpace=wrap;html=1;fillColor=#E5CCFF;strokeColor=#1A1A1A;arcSize=7;" parent="1" vertex="1">
                    <mxGeometry x="300" y="260" width="220" height="90" as="geometry"/>
                </mxCell>
                <mxCell id="YWgGbhT9v-dE-4aeQCzL-24" value="" style="endArrow=none;html=1;rounded=1;exitX=0.5;exitY=0;exitDx=0;exitDy=0;curved=0;strokeWidth=3;strokeColor=#00CC00;entryX=0.5;entryY=1;entryDx=0;entryDy=0;" parent="1" source="YWgGbhT9v-dE-4aeQCzL-12" target="YWgGbhT9v-dE-4aeQCzL-19" edge="1">
                    <mxGeometry width="50" height="50" relative="1" as="geometry">
                        <mxPoint x="355" y="570" as="sourcePoint"/>
                        <mxPoint x="640" y="490" as="targetPoint"/>
                        <Array as="points">
                            <mxPoint x="695" y="530"/>
                            <mxPoint x="640" y="530"/>
                        </Array>
                    </mxGeometry>
                </mxCell>
                <mxCell id="YWgGbhT9v-dE-4aeQCzL-16" value="" style="rounded=1;whiteSpace=wrap;html=1;fillColor=#CCFFFF;strokeColor=#1A1A1A;arcSize=7;" parent="1" vertex="1">
                    <mxGeometry x="290" y="400" width="430" height="100" as="geometry"/>
                </mxCell>
                <mxCell id="YWgGbhT9v-dE-4aeQCzL-1" value="" style="rounded=1;whiteSpace=wrap;html=1;fillColor=#FF6666;strokeColor=#1A1A1A;arcSize=10;" parent="1" vertex="1">
                    <mxGeometry x="290" y="560" width="110" height="80" as="geometry"/>
                </mxCell>
                <mxCell id="YWgGbhT9v-dE-4aeQCzL-2" value="" style="shape=image;verticalLabelPosition=bottom;labelBackgroundColor=default;verticalAlign=top;aspect=fixed;imageAspect=0;image=https://static.thenounproject.com/png/72238-200.png;" parent="1" vertex="1">
                    <mxGeometry x="300" y="560" width="90" height="90" as="geometry"/>
                </mxCell>
                <mxCell id="YWgGbhT9v-dE-4aeQCzL-7" value="&lt;b&gt;&lt;font style=&quot;color: rgb(0, 0, 0);&quot;&gt;PLC 01&lt;/font&gt;&lt;/b&gt;" style="rounded=0;whiteSpace=wrap;html=1;strokeColor=none;fillColor=none;" parent="1" vertex="1">
                    <mxGeometry x="310" y="562" width="70" height="20" as="geometry"/>
                </mxCell>
                <mxCell id="YWgGbhT9v-dE-4aeQCzL-8" value="" style="rounded=1;whiteSpace=wrap;html=1;fillColor=#FF6666;strokeColor=#1A1A1A;arcSize=10;" parent="1" vertex="1">
                    <mxGeometry x="460" y="560" width="110" height="80" as="geometry"/>
                </mxCell>
                <mxCell id="YWgGbhT9v-dE-4aeQCzL-9" value="" style="shape=image;verticalLabelPosition=bottom;labelBackgroundColor=default;verticalAlign=top;aspect=fixed;imageAspect=0;image=https://static.thenounproject.com/png/72238-200.png;" parent="1" vertex="1">
                    <mxGeometry x="470" y="560" width="90" height="90" as="geometry"/>
                </mxCell>
                <mxCell id="YWgGbhT9v-dE-4aeQCzL-10" value="&lt;b&gt;&lt;font style=&quot;color: rgb(0, 0, 0);&quot;&gt;PLC 02&lt;/font&gt;&lt;/b&gt;" style="rounded=0;whiteSpace=wrap;html=1;strokeColor=none;fillColor=none;" parent="1" vertex="1">
                    <mxGeometry x="480" y="562" width="70" height="20" as="geometry"/>
                </mxCell>
                <mxCell id="YWgGbhT9v-dE-4aeQCzL-11" value="" style="rounded=1;whiteSpace=wrap;html=1;fillColor=#00FF00;strokeColor=#1A1A1A;arcSize=10;" parent="1" vertex="1">
                    <mxGeometry x="640" y="560" width="110" height="80" as="geometry"/>
                </mxCell>
                <mxCell id="YWgGbhT9v-dE-4aeQCzL-12" value="" style="shape=image;verticalLabelPosition=bottom;labelBackgroundColor=default;verticalAlign=top;aspect=fixed;imageAspect=0;image=https://static.thenounproject.com/png/72238-200.png;" parent="1" vertex="1">
                    <mxGeometry x="650" y="560" width="90" height="90" as="geometry"/>
                </mxCell>
                <mxCell id="YWgGbhT9v-dE-4aeQCzL-13" value="&lt;b&gt;&lt;font style=&quot;color: rgb(0, 0, 0);&quot;&gt;PLC 03&lt;/font&gt;&lt;/b&gt;" style="rounded=0;whiteSpace=wrap;html=1;strokeColor=none;fillColor=none;" parent="1" vertex="1">
                    <mxGeometry x="660" y="562" width="70" height="20" as="geometry"/>
                </mxCell>
                <mxCell id="YWgGbhT9v-dE-4aeQCzL-14" value="" style="image;points=[];aspect=fixed;html=1;align=center;shadow=0;dashed=0;image=img/lib/allied_telesis/computer_and_terminals/Server_Desktop.svg;" parent="1" vertex="1">
                    <mxGeometry x="313.7" y="434" width="42.599999999999994" height="54" as="geometry"/>
                </mxCell>
                <mxCell id="YWgGbhT9v-dE-4aeQCzL-17" value="&lt;b&gt;&lt;font style=&quot;color: rgb(0, 0, 0);&quot;&gt;Server 01&lt;/font&gt;&lt;/b&gt;" style="rounded=0;whiteSpace=wrap;html=1;strokeColor=none;fillColor=none;" parent="1" vertex="1">
                    <mxGeometry x="300" y="410" width="70" height="20" as="geometry"/>
                </mxCell>
                <mxCell id="YWgGbhT9v-dE-4aeQCzL-18" value="" style="rounded=1;whiteSpace=wrap;html=1;fillColor=#99FFFF;strokeColor=#1A1A1A;arcSize=7;" parent="1" vertex="1">
                    <mxGeometry x="380" y="410" width="120" height="80" as="geometry"/>
                </mxCell>
                <mxCell id="YWgGbhT9v-dE-4aeQCzL-20" value="&lt;b&gt;&lt;font style=&quot;color: rgb(0, 0, 0);&quot;&gt;SCADA&lt;/font&gt;&lt;/b&gt;" style="rounded=0;whiteSpace=wrap;html=1;strokeColor=none;fillColor=none;" parent="1" vertex="1">
                    <mxGeometry x="405" y="411" width="70" height="20" as="geometry"/>
                </mxCell>
                <mxCell id="YWgGbhT9v-dE-4aeQCzL-21" value="&lt;font color=&quot;#000000&quot;&gt;&lt;b&gt;OPC UA&lt;/b&gt;&lt;/font&gt;" style="rounded=0;whiteSpace=wrap;html=1;strokeColor=none;fillColor=none;" parent="1" vertex="1">
                    <mxGeometry x="605" y="412" width="70" height="20" as="geometry"/>
                </mxCell>
                <mxCell id="YWgGbhT9v-dE-4aeQCzL-22" value="" style="endArrow=none;html=1;rounded=1;exitX=0.5;exitY=0;exitDx=0;exitDy=0;entryX=0.5;entryY=1;entryDx=0;entryDy=0;curved=0;strokeWidth=3;strokeColor=#FF0000;" parent="1" source="YWgGbhT9v-dE-4aeQCzL-2" target="YWgGbhT9v-dE-4aeQCzL-19" edge="1">
                    <mxGeometry width="50" height="50" relative="1" as="geometry">
                        <mxPoint x="460" y="480" as="sourcePoint"/>
                        <mxPoint x="510" y="430" as="targetPoint"/>
                        <Array as="points">
                            <mxPoint x="345" y="530"/>
                            <mxPoint x="640" y="530"/>
                        </Array>
                    </mxGeometry>
                </mxCell>
                <mxCell id="YWgGbhT9v-dE-4aeQCzL-25" value="" style="endArrow=none;html=1;rounded=0;exitX=0.5;exitY=0;exitDx=0;exitDy=0;strokeWidth=3;strokeColor=#FF0000;" parent="1" source="YWgGbhT9v-dE-4aeQCzL-9" edge="1">
                    <mxGeometry width="50" height="50" relative="1" as="geometry">
                        <mxPoint x="500" y="490" as="sourcePoint"/>
                        <mxPoint x="515" y="530" as="targetPoint"/>
                    </mxGeometry>
                </mxCell>
                <mxCell id="YWgGbhT9v-dE-4aeQCzL-30" style="edgeStyle=orthogonalEdgeStyle;rounded=0;orthogonalLoop=1;jettySize=auto;html=1;exitX=0;exitY=0.5;exitDx=0;exitDy=0;entryX=1;entryY=0.5;entryDx=0;entryDy=0;endArrow=none;startFill=0;strokeColor=#0000CC;strokeWidth=3;" parent="1" source="YWgGbhT9v-dE-4aeQCzL-19" target="YWgGbhT9v-dE-4aeQCzL-18" edge="1">
                    <mxGeometry relative="1" as="geometry"/>
                </mxCell>
                <mxCell id="YWgGbhT9v-dE-4aeQCzL-19" value="" style="rounded=1;whiteSpace=wrap;html=1;fillColor=#99FFFF;strokeColor=#1A1A1A;arcSize=7;" parent="1" vertex="1">
                    <mxGeometry x="580" y="410" width="120" height="80" as="geometry"/>
                </mxCell>
                <mxCell id="YWgGbhT9v-dE-4aeQCzL-27" value="&lt;b&gt;&lt;font style=&quot;color: rgb(0, 0, 0);&quot;&gt;OPC UA&lt;/font&gt;&lt;/b&gt;" style="rounded=0;whiteSpace=wrap;html=1;strokeColor=none;fillColor=none;" parent="1" vertex="1">
                    <mxGeometry x="605" y="412" width="70" height="20" as="geometry"/>
                </mxCell>
                <mxCell id="YWgGbhT9v-dE-4aeQCzL-28" value="&lt;b&gt;&lt;font style=&quot;color: rgb(255, 0, 0);&quot;&gt;CC-Link-IE&lt;/font&gt;&lt;/b&gt;" style="rounded=0;whiteSpace=wrap;html=1;strokeColor=none;fillColor=none;" parent="1" vertex="1">
                    <mxGeometry x="455" y="507" width="70" height="20" as="geometry"/>
                </mxCell>
                <mxCell id="YWgGbhT9v-dE-4aeQCzL-29" value="&lt;b&gt;&lt;font style=&quot;color: rgb(0, 204, 0);&quot;&gt;Modbus TCP&lt;/font&gt;&lt;/b&gt;" style="rounded=0;whiteSpace=wrap;html=1;strokeColor=none;fillColor=none;" parent="1" vertex="1">
                    <mxGeometry x="650" y="507" width="90" height="20" as="geometry"/>
                </mxCell>
                <mxCell id="YWgGbhT9v-dE-4aeQCzL-32" style="edgeStyle=orthogonalEdgeStyle;rounded=0;orthogonalLoop=1;jettySize=auto;html=1;endArrow=none;startFill=0;strokeColor=#0000CC;strokeWidth=3;" parent="1" edge="1">
                    <mxGeometry relative="1" as="geometry">
                        <mxPoint x="640" y="410" as="sourcePoint"/>
                        <mxPoint x="640" y="340" as="targetPoint"/>
                    </mxGeometry>
                </mxCell>
                <mxCell id="YWgGbhT9v-dE-4aeQCzL-34" value="&lt;b&gt;&lt;font style=&quot;color: rgb(0, 0, 204);&quot;&gt;OPC UA&lt;/font&gt;&lt;/b&gt;" style="rounded=0;whiteSpace=wrap;html=1;strokeColor=none;fillColor=none;" parent="1" vertex="1">
                    <mxGeometry x="650" y="366" width="70" height="20" as="geometry"/>
                </mxCell>
                <mxCell id="YWgGbhT9v-dE-4aeQCzL-37" value="&lt;b&gt;&lt;font style=&quot;color: rgb(0, 0, 204);&quot;&gt;OPC UA&lt;/font&gt;&lt;/b&gt;" style="rounded=0;whiteSpace=wrap;html=1;strokeColor=none;fillColor=none;" parent="1" vertex="1">
                    <mxGeometry x="506" y="421" width="70" height="20" as="geometry"/>
                </mxCell>
                <mxCell id="YWgGbhT9v-dE-4aeQCzL-39" value="" style="shape=image;verticalLabelPosition=bottom;labelBackgroundColor=default;verticalAlign=top;aspect=fixed;imageAspect=0;image=https://images.seeklogo.com/logo-png/35/2/opc-unified-architecture-ua-logo-png_seeklogo-355019.png;" parent="1" vertex="1">
                    <mxGeometry x="590" y="400" width="100" height="100" as="geometry"/>
                </mxCell>
                <mxCell id="YWgGbhT9v-dE-4aeQCzL-41" value="" style="shape=image;verticalLabelPosition=bottom;labelBackgroundColor=default;verticalAlign=top;aspect=fixed;imageAspect=0;image=https://iconics.fr/wp-content/uploads/2021/04/ICONICS_logo-1.png;" parent="1" vertex="1">
                    <mxGeometry x="402.20000000000005" y="434" width="76.8" height="44" as="geometry"/>
                </mxCell>
                <mxCell id="YWgGbhT9v-dE-4aeQCzL-42" value="" style="rounded=1;whiteSpace=wrap;html=1;fillColor=#CCFFFF;strokeColor=#1A1A1A;arcSize=7;" parent="1" vertex="1">
                    <mxGeometry x="580" y="281" width="120" height="70" as="geometry"/>
                </mxCell>
                <mxCell id="YWgGbhT9v-dE-4aeQCzL-43" value="&lt;font color=&quot;#000000&quot;&gt;&lt;b&gt;IoT Gateway&lt;/b&gt;&lt;/font&gt;" style="rounded=0;whiteSpace=wrap;html=1;strokeColor=none;fillColor=none;" parent="1" vertex="1">
                    <mxGeometry x="590" y="281" width="110" height="20" as="geometry"/>
                </mxCell>
                <mxCell id="YWgGbhT9v-dE-4aeQCzL-48" value="" style="shape=image;verticalLabelPosition=bottom;labelBackgroundColor=default;verticalAlign=top;aspect=fixed;imageAspect=0;image=https://scadalliance.com/partenaires/ewon.png;" parent="1" vertex="1">
                    <mxGeometry x="592" y="301" width="96" height="40" as="geometry"/>
                </mxCell>
                <mxCell id="YWgGbhT9v-dE-4aeQCzL-53" value="" style="image;points=[];aspect=fixed;html=1;align=center;shadow=0;dashed=0;image=img/lib/allied_telesis/computer_and_terminals/Personal_Computer_with_Server.svg;" parent="1" vertex="1">
                    <mxGeometry x="338.6" y="290" width="41.4" height="41.4" as="geometry"/>
                </mxCell>
                <mxCell id="YWgGbhT9v-dE-4aeQCzL-54" value="" style="image;points=[];aspect=fixed;html=1;align=center;shadow=0;dashed=0;image=img/lib/allied_telesis/computer_and_terminals/Personal_Computer_with_Server.svg;" parent="1" vertex="1">
                    <mxGeometry x="438.6" y="290" width="41.4" height="41.4" as="geometry"/>
                </mxCell>
                <mxCell id="YWgGbhT9v-dE-4aeQCzL-55" value="&lt;b&gt;&lt;font style=&quot;color: rgb(0, 0, 0);&quot;&gt;Client 01&lt;/font&gt;&lt;/b&gt;" style="rounded=0;whiteSpace=wrap;html=1;strokeColor=none;fillColor=none;" parent="1" vertex="1">
                    <mxGeometry x="324.3" y="265" width="70" height="20" as="geometry"/>
                </mxCell>
                <mxCell id="YWgGbhT9v-dE-4aeQCzL-56" value="&lt;b&gt;&lt;font style=&quot;color: rgb(0, 0, 0);&quot;&gt;Client 02&lt;/font&gt;&lt;/b&gt;" style="rounded=0;whiteSpace=wrap;html=1;strokeColor=none;fillColor=none;" parent="1" vertex="1">
                    <mxGeometry x="424.3" y="265" width="70" height="20" as="geometry"/>
                </mxCell>
                <mxCell id="YWgGbhT9v-dE-4aeQCzL-57" value="" style="endArrow=none;html=1;rounded=1;exitX=0.5;exitY=0;exitDx=0;exitDy=0;strokeColor=#6600CC;strokeWidth=3;curved=0;" parent="1" source="YWgGbhT9v-dE-4aeQCzL-20" target="YWgGbhT9v-dE-4aeQCzL-53" edge="1">
                    <mxGeometry width="50" height="50" relative="1" as="geometry">
                        <mxPoint x="440" y="430" as="sourcePoint"/>
                        <mxPoint x="370" y="340" as="targetPoint"/>
                        <Array as="points">
                            <mxPoint x="440" y="380"/>
                            <mxPoint x="360" y="380"/>
                        </Array>
                    </mxGeometry>
                </mxCell>
                <mxCell id="YWgGbhT9v-dE-4aeQCzL-58" value="" style="endArrow=none;html=1;rounded=1;exitX=0.5;exitY=0;exitDx=0;exitDy=0;strokeColor=#6600CC;strokeWidth=3;curved=0;entryX=0.516;entryY=0.988;entryDx=0;entryDy=0;entryPerimeter=0;" parent="1" source="YWgGbhT9v-dE-4aeQCzL-20" target="YWgGbhT9v-dE-4aeQCzL-54" edge="1">
                    <mxGeometry width="50" height="50" relative="1" as="geometry">
                        <mxPoint x="450" y="421" as="sourcePoint"/>
                        <mxPoint x="460" y="340" as="targetPoint"/>
                        <Array as="points">
                            <mxPoint x="440" y="380"/>
                            <mxPoint x="460" y="380"/>
                        </Array>
                    </mxGeometry>
                </mxCell>
                <mxCell id="YWgGbhT9v-dE-4aeQCzL-60" value="&lt;b&gt;&lt;font style=&quot;color: rgb(76, 0, 153);&quot;&gt;HTTPS&lt;/font&gt;&lt;/b&gt;" style="rounded=0;whiteSpace=wrap;html=1;strokeColor=none;fillColor=none;" parent="1" vertex="1">
                    <mxGeometry x="380" y="353" width="70" height="20" as="geometry"/>
                </mxCell>
                <mxCell id="YWgGbhT9v-dE-4aeQCzL-63" style="edgeStyle=orthogonalEdgeStyle;rounded=0;orthogonalLoop=1;jettySize=auto;html=1;endArrow=none;startFill=0;strokeColor=#FF00FF;strokeWidth=3;entryX=0.5;entryY=1;entryDx=0;entryDy=0;exitX=0.455;exitY=0;exitDx=0;exitDy=0;exitPerimeter=0;fontColor=#CC6600;" parent="1" source="YWgGbhT9v-dE-4aeQCzL-43" target="YWgGbhT9v-dE-4aeQCzL-61" edge="1">
                    <mxGeometry relative="1" as="geometry">
                        <mxPoint x="630" y="301" as="sourcePoint"/>
                        <mxPoint x="630" y="231" as="targetPoint"/>
                        <Array as="points">
                            <mxPoint x="640" y="220"/>
                        </Array>
                    </mxGeometry>
                </mxCell>
                <mxCell id="YWgGbhT9v-dE-4aeQCzL-61" value="" style="rounded=1;whiteSpace=wrap;html=1;fillColor=#FF8000;strokeColor=#1A1A1A;arcSize=7;fontColor=#FFB366;" parent="1" vertex="1">
                    <mxGeometry x="580" y="190" width="120" height="32" as="geometry"/>
                </mxCell>
                <mxCell id="YWgGbhT9v-dE-4aeQCzL-62" value="&lt;font color=&quot;#000000&quot;&gt;&lt;b&gt;Cloud Services&lt;/b&gt;&lt;/font&gt;" style="rounded=0;whiteSpace=wrap;html=1;strokeColor=none;fillColor=none;" parent="1" vertex="1">
                    <mxGeometry x="585" y="196" width="110" height="20" as="geometry"/>
                </mxCell>
                <mxCell id="YWgGbhT9v-dE-4aeQCzL-64" value="&lt;b&gt;&lt;font color=&quot;#cc00cc&quot; style=&quot;&quot;&gt;MQTT&lt;/font&gt;&lt;/b&gt;" style="rounded=0;whiteSpace=wrap;html=1;strokeColor=none;fillColor=none;fontColor=#FF8000;" parent="1" vertex="1">
                    <mxGeometry x="640" y="240" width="70" height="20" as="geometry"/>
                </mxCell>
                <mxCell id="qGfMKpQDj4KVWiZ2LK5q-1" value="&lt;b&gt;&lt;font style=&quot;font-size: 15px;&quot;&gt;Industrial Control System&lt;/font&gt;&lt;/b&gt;" style="rounded=0;whiteSpace=wrap;html=1;strokeColor=none;fillColor=none;" parent="1" vertex="1">
                    <mxGeometry x="290" y="190" width="190" height="20" as="geometry"/>
                </mxCell>
                <mxCell id="qGfMKpQDj4KVWiZ2LK5q-2" value="" style="rounded=1;whiteSpace=wrap;html=1;fillColor=#FFFFFF;strokeColor=#1A1A1A;arcSize=3;movable=1;resizable=1;rotatable=1;deletable=1;editable=1;locked=0;connectable=1;" parent="1" vertex="1">
                    <mxGeometry x="810" y="170" width="500" height="490" as="geometry"/>
                </mxCell>
                <mxCell id="qGfMKpQDj4KVWiZ2LK5q-3" value="" style="rounded=1;whiteSpace=wrap;html=1;fillColor=#E5CCFF;strokeColor=#1A1A1A;arcSize=7;" parent="1" vertex="1">
                    <mxGeometry x="840" y="260" width="220" height="90" as="geometry"/>
                </mxCell>
                <mxCell id="qGfMKpQDj4KVWiZ2LK5q-5" value="" style="rounded=1;whiteSpace=wrap;html=1;fillColor=#CCFFFF;strokeColor=#1A1A1A;arcSize=7;" parent="1" vertex="1">
                    <mxGeometry x="830" y="400" width="430" height="100" as="geometry"/>
                </mxCell>
                <mxCell id="qGfMKpQDj4KVWiZ2LK5q-6" value="" style="rounded=1;whiteSpace=wrap;html=1;fillColor=#FFCC99;strokeColor=#1A1A1A;arcSize=10;" parent="1" vertex="1">
                    <mxGeometry x="830" y="560" width="110" height="80" as="geometry"/>
                </mxCell>
                <mxCell id="qGfMKpQDj4KVWiZ2LK5q-7" value="" style="shape=image;verticalLabelPosition=bottom;labelBackgroundColor=default;verticalAlign=top;aspect=fixed;imageAspect=0;image=https://static.thenounproject.com/png/72238-200.png;" parent="1" vertex="1">
                    <mxGeometry x="840" y="560" width="90" height="90" as="geometry"/>
                </mxCell>
                <mxCell id="qGfMKpQDj4KVWiZ2LK5q-8" value="&lt;b&gt;&lt;font style=&quot;color: rgb(0, 0, 0);&quot;&gt;DDC 01&lt;/font&gt;&lt;/b&gt;" style="rounded=0;whiteSpace=wrap;html=1;strokeColor=none;fillColor=none;" parent="1" vertex="1">
                    <mxGeometry x="850" y="562" width="70" height="20" as="geometry"/>
                </mxCell>
                <mxCell id="qGfMKpQDj4KVWiZ2LK5q-9" value="" style="rounded=1;whiteSpace=wrap;html=1;fillColor=#FFCC99;strokeColor=#1A1A1A;arcSize=10;" parent="1" vertex="1">
                    <mxGeometry x="1000" y="560" width="110" height="80" as="geometry"/>
                </mxCell>
                <mxCell id="qGfMKpQDj4KVWiZ2LK5q-10" value="" style="shape=image;verticalLabelPosition=bottom;labelBackgroundColor=default;verticalAlign=top;aspect=fixed;imageAspect=0;image=https://static.thenounproject.com/png/72238-200.png;" parent="1" vertex="1">
                    <mxGeometry x="1010" y="560" width="90" height="90" as="geometry"/>
                </mxCell>
                <mxCell id="qGfMKpQDj4KVWiZ2LK5q-11" value="&lt;b&gt;&lt;font style=&quot;color: rgb(0, 0, 0);&quot;&gt;DDC 02&lt;/font&gt;&lt;/b&gt;" style="rounded=0;whiteSpace=wrap;html=1;strokeColor=none;fillColor=none;" parent="1" vertex="1">
                    <mxGeometry x="1020" y="562" width="70" height="20" as="geometry"/>
                </mxCell>
                <mxCell id="qGfMKpQDj4KVWiZ2LK5q-12" value="" style="rounded=1;whiteSpace=wrap;html=1;fillColor=#FFCC99;strokeColor=#1A1A1A;arcSize=10;" parent="1" vertex="1">
                    <mxGeometry x="1180" y="560" width="110" height="80" as="geometry"/>
                </mxCell>
                <mxCell id="qGfMKpQDj4KVWiZ2LK5q-13" value="" style="shape=image;verticalLabelPosition=bottom;labelBackgroundColor=default;verticalAlign=top;aspect=fixed;imageAspect=0;image=https://static.thenounproject.com/png/72238-200.png;" parent="1" vertex="1">
                    <mxGeometry x="1190" y="560" width="90" height="90" as="geometry"/>
                </mxCell>
                <mxCell id="qGfMKpQDj4KVWiZ2LK5q-14" value="&lt;b&gt;&lt;font style=&quot;color: rgb(0, 0, 0);&quot;&gt;DDC 03&lt;/font&gt;&lt;/b&gt;" style="rounded=0;whiteSpace=wrap;html=1;strokeColor=none;fillColor=none;" parent="1" vertex="1">
                    <mxGeometry x="1200" y="562" width="70" height="20" as="geometry"/>
                </mxCell>
                <mxCell id="qGfMKpQDj4KVWiZ2LK5q-15" value="" style="image;points=[];aspect=fixed;html=1;align=center;shadow=0;dashed=0;image=img/lib/allied_telesis/computer_and_terminals/Server_Desktop.svg;" parent="1" vertex="1">
                    <mxGeometry x="853.7" y="434" width="42.599999999999994" height="54" as="geometry"/>
                </mxCell>
                <mxCell id="qGfMKpQDj4KVWiZ2LK5q-16" value="&lt;b&gt;&lt;font style=&quot;color: rgb(0, 0, 0);&quot;&gt;Server 01&lt;/font&gt;&lt;/b&gt;" style="rounded=0;whiteSpace=wrap;html=1;strokeColor=none;fillColor=none;" parent="1" vertex="1">
                    <mxGeometry x="840" y="410" width="70" height="20" as="geometry"/>
                </mxCell>
                <mxCell id="qGfMKpQDj4KVWiZ2LK5q-17" value="" style="rounded=1;whiteSpace=wrap;html=1;fillColor=#99FFFF;strokeColor=#1A1A1A;arcSize=7;" parent="1" vertex="1">
                    <mxGeometry x="920" y="410" width="120" height="80" as="geometry"/>
                </mxCell>
                <mxCell id="qGfMKpQDj4KVWiZ2LK5q-18" value="&lt;b&gt;&lt;font style=&quot;color: rgb(0, 0, 0);&quot;&gt;SCADA&lt;/font&gt;&lt;/b&gt;" style="rounded=0;whiteSpace=wrap;html=1;strokeColor=none;fillColor=none;" parent="1" vertex="1">
                    <mxGeometry x="945" y="411" width="70" height="20" as="geometry"/>
                </mxCell>
                <mxCell id="qGfMKpQDj4KVWiZ2LK5q-20" value="" style="endArrow=none;html=1;rounded=1;exitX=0.5;exitY=0;exitDx=0;exitDy=0;entryX=0.5;entryY=1;entryDx=0;entryDy=0;curved=0;strokeWidth=3;strokeColor=#FF8000;" parent="1" source="qGfMKpQDj4KVWiZ2LK5q-7" target="qGfMKpQDj4KVWiZ2LK5q-17" edge="1">
                    <mxGeometry width="50" height="50" relative="1" as="geometry">
                        <mxPoint x="1000" y="480" as="sourcePoint"/>
                        <mxPoint x="1180" y="490" as="targetPoint"/>
                        <Array as="points">
                            <mxPoint x="885" y="530"/>
                            <mxPoint x="980" y="530"/>
                        </Array>
                    </mxGeometry>
                </mxCell>
                <mxCell id="qGfMKpQDj4KVWiZ2LK5q-21" value="" style="endArrow=none;html=1;rounded=0;exitX=0.5;exitY=0;exitDx=0;exitDy=0;strokeWidth=3;strokeColor=#FF8000;" parent="1" source="qGfMKpQDj4KVWiZ2LK5q-10" edge="1">
                    <mxGeometry width="50" height="50" relative="1" as="geometry">
                        <mxPoint x="1040" y="490" as="sourcePoint"/>
                        <mxPoint x="1055" y="530" as="targetPoint"/>
                    </mxGeometry>
                </mxCell>
                <mxCell id="qGfMKpQDj4KVWiZ2LK5q-26" value="&lt;b&gt;&lt;font color=&quot;#cc6600&quot; style=&quot;&quot;&gt;BACnet/BACnetSC&lt;/font&gt;&lt;/b&gt;" style="rounded=0;whiteSpace=wrap;html=1;strokeColor=none;fillColor=none;" parent="1" vertex="1">
                    <mxGeometry x="1020" y="507" width="115" height="20" as="geometry"/>
                </mxCell>
                <mxCell id="qGfMKpQDj4KVWiZ2LK5q-32" value="" style="shape=image;verticalLabelPosition=bottom;labelBackgroundColor=default;verticalAlign=top;aspect=fixed;imageAspect=0;image=https://iconics.fr/wp-content/uploads/2021/04/ICONICS_logo-1.png;" parent="1" vertex="1">
                    <mxGeometry x="942.2" y="434" width="76.8" height="44" as="geometry"/>
                </mxCell>
                <mxCell id="qGfMKpQDj4KVWiZ2LK5q-33" value="" style="rounded=1;whiteSpace=wrap;html=1;fillColor=#CCFFFF;strokeColor=#1A1A1A;arcSize=7;" parent="1" vertex="1">
                    <mxGeometry x="1120" y="281" width="120" height="70" as="geometry"/>
                </mxCell>
                <mxCell id="qGfMKpQDj4KVWiZ2LK5q-34" value="&lt;font color=&quot;#000000&quot;&gt;&lt;b&gt;IoT Gateway&lt;/b&gt;&lt;/font&gt;" style="rounded=0;whiteSpace=wrap;html=1;strokeColor=none;fillColor=none;" parent="1" vertex="1">
                    <mxGeometry x="1130" y="281" width="110" height="20" as="geometry"/>
                </mxCell>
                <mxCell id="qGfMKpQDj4KVWiZ2LK5q-35" value="" style="shape=image;verticalLabelPosition=bottom;labelBackgroundColor=default;verticalAlign=top;aspect=fixed;imageAspect=0;image=https://scadalliance.com/partenaires/ewon.png;" parent="1" vertex="1">
                    <mxGeometry x="1132" y="301" width="96" height="40" as="geometry"/>
                </mxCell>
                <mxCell id="qGfMKpQDj4KVWiZ2LK5q-36" value="" style="image;points=[];aspect=fixed;html=1;align=center;shadow=0;dashed=0;image=img/lib/allied_telesis/computer_and_terminals/Personal_Computer_with_Server.svg;" parent="1" vertex="1">
                    <mxGeometry x="878.6" y="290" width="41.4" height="41.4" as="geometry"/>
                </mxCell>
                <mxCell id="qGfMKpQDj4KVWiZ2LK5q-37" value="" style="image;points=[];aspect=fixed;html=1;align=center;shadow=0;dashed=0;image=img/lib/allied_telesis/computer_and_terminals/Personal_Computer_with_Server.svg;" parent="1" vertex="1">
                    <mxGeometry x="978.6" y="290" width="41.4" height="41.4" as="geometry"/>
                </mxCell>
                <mxCell id="qGfMKpQDj4KVWiZ2LK5q-38" value="&lt;b&gt;&lt;font style=&quot;color: rgb(0, 0, 0);&quot;&gt;Client 01&lt;/font&gt;&lt;/b&gt;" style="rounded=0;whiteSpace=wrap;html=1;strokeColor=none;fillColor=none;" parent="1" vertex="1">
                    <mxGeometry x="864.3" y="265" width="70" height="20" as="geometry"/>
                </mxCell>
                <mxCell id="qGfMKpQDj4KVWiZ2LK5q-39" value="&lt;b&gt;&lt;font style=&quot;color: rgb(0, 0, 0);&quot;&gt;Client 02&lt;/font&gt;&lt;/b&gt;" style="rounded=0;whiteSpace=wrap;html=1;strokeColor=none;fillColor=none;" parent="1" vertex="1">
                    <mxGeometry x="964.3" y="265" width="70" height="20" as="geometry"/>
                </mxCell>
                <mxCell id="qGfMKpQDj4KVWiZ2LK5q-40" value="" style="endArrow=none;html=1;rounded=1;exitX=0.5;exitY=0;exitDx=0;exitDy=0;strokeColor=#6600CC;strokeWidth=3;curved=0;" parent="1" source="qGfMKpQDj4KVWiZ2LK5q-18" target="qGfMKpQDj4KVWiZ2LK5q-36" edge="1">
                    <mxGeometry width="50" height="50" relative="1" as="geometry">
                        <mxPoint x="980" y="430" as="sourcePoint"/>
                        <mxPoint x="910" y="340" as="targetPoint"/>
                        <Array as="points">
                            <mxPoint x="980" y="380"/>
                            <mxPoint x="900" y="380"/>
                        </Array>
                    </mxGeometry>
                </mxCell>
                <mxCell id="qGfMKpQDj4KVWiZ2LK5q-41" value="" style="endArrow=none;html=1;rounded=1;exitX=0.5;exitY=0;exitDx=0;exitDy=0;strokeColor=#6600CC;strokeWidth=3;curved=0;entryX=0.516;entryY=0.988;entryDx=0;entryDy=0;entryPerimeter=0;" parent="1" source="qGfMKpQDj4KVWiZ2LK5q-18" target="qGfMKpQDj4KVWiZ2LK5q-37" edge="1">
                    <mxGeometry width="50" height="50" relative="1" as="geometry">
                        <mxPoint x="990" y="421" as="sourcePoint"/>
                        <mxPoint x="1000" y="340" as="targetPoint"/>
                        <Array as="points">
                            <mxPoint x="980" y="380"/>
                            <mxPoint x="1000" y="380"/>
                        </Array>
                    </mxGeometry>
                </mxCell>
                <mxCell id="qGfMKpQDj4KVWiZ2LK5q-42" value="&lt;b&gt;&lt;font style=&quot;color: rgb(76, 0, 153);&quot;&gt;HTTPS&lt;/font&gt;&lt;/b&gt;" style="rounded=0;whiteSpace=wrap;html=1;strokeColor=none;fillColor=none;" parent="1" vertex="1">
                    <mxGeometry x="920" y="353" width="70" height="20" as="geometry"/>
                </mxCell>
                <mxCell id="qGfMKpQDj4KVWiZ2LK5q-43" style="edgeStyle=orthogonalEdgeStyle;rounded=0;orthogonalLoop=1;jettySize=auto;html=1;endArrow=none;startFill=0;strokeColor=#FF00FF;strokeWidth=3;entryX=0.5;entryY=1;entryDx=0;entryDy=0;exitX=0.455;exitY=0;exitDx=0;exitDy=0;exitPerimeter=0;fontColor=#CC6600;" parent="1" source="qGfMKpQDj4KVWiZ2LK5q-34" edge="1">
                    <mxGeometry relative="1" as="geometry">
                        <mxPoint x="1170" y="301" as="sourcePoint"/>
                        <mxPoint x="1180" y="222" as="targetPoint"/>
                        <Array as="points">
                            <mxPoint x="1180" y="220"/>
                        </Array>
                    </mxGeometry>
                </mxCell>
                <mxCell id="qGfMKpQDj4KVWiZ2LK5q-46" value="&lt;b&gt;&lt;font color=&quot;#cc00cc&quot; style=&quot;&quot;&gt;MQTT&lt;/font&gt;&lt;/b&gt;" style="rounded=0;whiteSpace=wrap;html=1;strokeColor=none;fillColor=none;fontColor=#FF8000;" parent="1" vertex="1">
                    <mxGeometry x="1180" y="240" width="70" height="20" as="geometry"/>
                </mxCell>
                <mxCell id="qGfMKpQDj4KVWiZ2LK5q-47" value="&lt;b&gt;&lt;font style=&quot;font-size: 15px;&quot;&gt;Building Management System (BMS)&lt;/font&gt;&lt;/b&gt;" style="rounded=0;whiteSpace=wrap;html=1;strokeColor=none;fillColor=none;" parent="1" vertex="1">
                    <mxGeometry x="830" y="190" width="270" height="20" as="geometry"/>
                </mxCell>
                <mxCell id="qGfMKpQDj4KVWiZ2LK5q-4" value="" style="endArrow=none;html=1;rounded=1;exitX=0.5;exitY=0;exitDx=0;exitDy=0;curved=0;strokeWidth=3;strokeColor=#FF8000;entryX=0.5;entryY=1;entryDx=0;entryDy=0;" parent="1" source="qGfMKpQDj4KVWiZ2LK5q-13" target="qGfMKpQDj4KVWiZ2LK5q-17" edge="1">
                    <mxGeometry width="50" height="50" relative="1" as="geometry">
                        <mxPoint x="895" y="570" as="sourcePoint"/>
                        <mxPoint x="1180" y="490" as="targetPoint"/>
                        <Array as="points">
                            <mxPoint x="1235" y="530"/>
                            <mxPoint x="980" y="530"/>
                        </Array>
                    </mxGeometry>
                </mxCell>
                <mxCell id="qGfMKpQDj4KVWiZ2LK5q-48" value="" style="endArrow=none;html=1;rounded=0;strokeWidth=3;strokeColor=#FF8000;" parent="1" edge="1">
                    <mxGeometry width="50" height="50" relative="1" as="geometry">
                        <mxPoint x="1180" y="531" as="sourcePoint"/>
                        <mxPoint x="1180" y="351" as="targetPoint"/>
                    </mxGeometry>
                </mxCell>
                <mxCell id="qGfMKpQDj4KVWiZ2LK5q-49" value="" style="rounded=1;whiteSpace=wrap;html=1;fillColor=#FF8000;strokeColor=#1A1A1A;arcSize=7;fontColor=#FFB366;" parent="1" vertex="1">
                    <mxGeometry x="1120" y="190" width="120" height="32" as="geometry"/>
                </mxCell>
                <mxCell id="qGfMKpQDj4KVWiZ2LK5q-50" value="&lt;font color=&quot;#000000&quot;&gt;&lt;b&gt;Cloud Services&lt;/b&gt;&lt;/font&gt;" style="rounded=0;whiteSpace=wrap;html=1;strokeColor=none;fillColor=none;" parent="1" vertex="1">
                    <mxGeometry x="1125" y="196" width="110" height="20" as="geometry"/>
                </mxCell>
                <mxCell id="qGfMKpQDj4KVWiZ2LK5q-53" value="" style="endArrow=none;html=1;rounded=0;exitX=1;exitY=0.5;exitDx=0;exitDy=0;strokeWidth=5;strokeColor=#000033;" parent="1" source="qGfMKpQDj4KVWiZ2LK5q-57" edge="1">
                    <mxGeometry width="50" height="50" relative="1" as="geometry">
                        <mxPoint x="1737" y="422.9999999999999" as="sourcePoint"/>
                        <mxPoint x="2010" y="423" as="targetPoint"/>
                    </mxGeometry>
                </mxCell>
                <mxCell id="qGfMKpQDj4KVWiZ2LK5q-54" value="" style="endArrow=none;html=1;rounded=0;entryX=0;entryY=0.5;entryDx=0;entryDy=0;strokeWidth=5;strokeColor=#000033;" parent="1" target="qGfMKpQDj4KVWiZ2LK5q-57" edge="1">
                    <mxGeometry width="50" height="50" relative="1" as="geometry">
                        <mxPoint x="1570" y="423" as="sourcePoint"/>
                        <mxPoint x="1677" y="422.9999999999999" as="targetPoint"/>
                    </mxGeometry>
                </mxCell>
                <mxCell id="qGfMKpQDj4KVWiZ2LK5q-57" value="&lt;font style=&quot;font-size: 22px;&quot;&gt;M&lt;/font&gt;" style="ellipse;whiteSpace=wrap;html=1;aspect=fixed;fillColor=#CCCCFF;" parent="1" vertex="1">
                    <mxGeometry x="1679" y="395" width="55" height="55" as="geometry"/>
                </mxCell>
                <mxCell id="qGfMKpQDj4KVWiZ2LK5q-63" value="&lt;font style=&quot;font-size: 22px;&quot;&gt;M&lt;/font&gt;" style="ellipse;whiteSpace=wrap;html=1;aspect=fixed;fillColor=#CCCCFF;" parent="1" vertex="1">
                    <mxGeometry x="1679" y="491.5" width="55" height="55" as="geometry"/>
                </mxCell>
                <mxCell id="qGfMKpQDj4KVWiZ2LK5q-64" value="" style="endArrow=none;html=1;rounded=1;strokeWidth=5;exitX=1;exitY=0.5;exitDx=0;exitDy=0;curved=0;strokeColor=#000033;" parent="1" source="qGfMKpQDj4KVWiZ2LK5q-63" edge="1">
                    <mxGeometry width="50" height="50" relative="1" as="geometry">
                        <mxPoint x="1750" y="491.5" as="sourcePoint"/>
                        <mxPoint x="1810" y="422" as="targetPoint"/>
                        <Array as="points">
                            <mxPoint x="1810" y="519"/>
                        </Array>
                    </mxGeometry>
                </mxCell>
                <mxCell id="qGfMKpQDj4KVWiZ2LK5q-65" value="" style="endArrow=none;html=1;rounded=1;strokeWidth=5;exitX=0;exitY=0.5;exitDx=0;exitDy=0;curved=0;strokeColor=#000033;" parent="1" source="qGfMKpQDj4KVWiZ2LK5q-63" edge="1">
                    <mxGeometry width="50" height="50" relative="1" as="geometry">
                        <mxPoint x="1744" y="529" as="sourcePoint"/>
                        <mxPoint x="1610" y="423" as="targetPoint"/>
                        <Array as="points">
                            <mxPoint x="1610" y="519"/>
                        </Array>
                    </mxGeometry>
                </mxCell>
                <mxCell id="qGfMKpQDj4KVWiZ2LK5q-66" value="Flow Indicating Controller (FIC)&amp;nbsp;" style="rounded=1;whiteSpace=wrap;html=1;fillColor=#660066;fontStyle=1;fontColor=#FFFFFF;" parent="1" vertex="1">
                    <mxGeometry x="1611.5" y="235" width="190" height="20" as="geometry"/>
                </mxCell>
                <mxCell id="qGfMKpQDj4KVWiZ2LK5q-67" value="PID Controller" style="rounded=1;whiteSpace=wrap;html=1;fillColor=#660066;fontStyle=1;fontColor=#FFFFFF;" parent="1" vertex="1">
                    <mxGeometry x="1634.75" y="210" width="143.5" height="20" as="geometry"/>
                </mxCell>
                <mxCell id="qGfMKpQDj4KVWiZ2LK5q-68" value="" style="shape=cylinder3;whiteSpace=wrap;html=1;boundedLbl=1;backgroundOutline=1;size=15;fillColor=#E6E6E6;strokeWidth=2;" parent="1" vertex="1">
                    <mxGeometry x="2010" y="385" width="100" height="129" as="geometry"/>
                </mxCell>
                <mxCell id="qGfMKpQDj4KVWiZ2LK5q-69" value="Water Tank" style="rounded=1;whiteSpace=wrap;html=1;fillColor=#99FFFF;" parent="1" vertex="1">
                    <mxGeometry x="2010" y="524" width="100" height="20" as="geometry"/>
                </mxCell>
                <mxCell id="qGfMKpQDj4KVWiZ2LK5q-70" value="" style="shape=cylinder3;whiteSpace=wrap;html=1;boundedLbl=1;backgroundOutline=1;size=15;fillColor=#CCFFFF;strokeWidth=2;" parent="1" vertex="1">
                    <mxGeometry x="2010" y="434" width="100" height="80" as="geometry"/>
                </mxCell>
                <mxCell id="qGfMKpQDj4KVWiZ2LK5q-71" value="&lt;b&gt;FIT&lt;/b&gt;&lt;div&gt;&lt;b&gt;01&lt;/b&gt;&lt;/div&gt;" style="ellipse;whiteSpace=wrap;html=1;aspect=fixed;fillColor=#FFCCFF;" parent="1" vertex="1">
                    <mxGeometry x="1890" y="356" width="40" height="40" as="geometry"/>
                </mxCell>
                <mxCell id="qGfMKpQDj4KVWiZ2LK5q-72" value="" style="endArrow=none;html=1;rounded=0;entryX=0.5;entryY=1;entryDx=0;entryDy=0;strokeWidth=5;strokeColor=#000033;" parent="1" target="qGfMKpQDj4KVWiZ2LK5q-71" edge="1">
                    <mxGeometry width="50" height="50" relative="1" as="geometry">
                        <mxPoint x="1910" y="424" as="sourcePoint"/>
                        <mxPoint x="1860" y="304" as="targetPoint"/>
                    </mxGeometry>
                </mxCell>
                <mxCell id="qGfMKpQDj4KVWiZ2LK5q-74" value="Flow Indicating Transmitter (FIT)&amp;nbsp;" style="rounded=1;whiteSpace=wrap;html=1;fillColor=#660066;fontStyle=1;fontColor=#FFFFFF;" parent="1" vertex="1">
                    <mxGeometry x="1940" y="332.5" width="200" height="20" as="geometry"/>
                </mxCell>
                <mxCell id="qGfMKpQDj4KVWiZ2LK5q-77" value="" style="endArrow=none;dashed=1;html=1;strokeWidth=3;rounded=1;exitX=1;exitY=0.5;exitDx=0;exitDy=0;entryX=0.5;entryY=0;entryDx=0;entryDy=0;curved=0;strokeColor=#CC00CC;" parent="1" source="qGfMKpQDj4KVWiZ2LK5q-52" target="qGfMKpQDj4KVWiZ2LK5q-71" edge="1">
                    <mxGeometry width="50" height="50" relative="1" as="geometry">
                        <mxPoint x="1850" y="374" as="sourcePoint"/>
                        <mxPoint x="1900" y="324" as="targetPoint"/>
                        <Array as="points">
                            <mxPoint x="1909" y="287"/>
                        </Array>
                    </mxGeometry>
                </mxCell>
                <mxCell id="qGfMKpQDj4KVWiZ2LK5q-52" value="&lt;table cellpadding=&quot;4&quot; cellspacing=&quot;0&quot; border=&quot;0&quot; style=&quot;font-size:1em;width:100%;height:100%;&quot;&gt;&lt;tbody&gt;&lt;tr&gt;&lt;td&gt;FIC&lt;/td&gt;&lt;/tr&gt;&lt;tr&gt;&lt;td&gt;001&lt;/td&gt;&lt;/tr&gt;&lt;/tbody&gt;&lt;/table&gt; " style="html=1;outlineConnect=0;align=center;dashed=0;aspect=fixed;shape=mxgraph.pid2inst.progLogCont;mounting=room;fillColor=#E5CCFF;" parent="1" vertex="1">
                    <mxGeometry x="1680" y="260" width="54" height="54" as="geometry"/>
                </mxCell>
                <mxCell id="qGfMKpQDj4KVWiZ2LK5q-79" value="" style="endArrow=none;dashed=1;html=1;rounded=0;exitX=0.5;exitY=0;exitDx=0;exitDy=0;entryX=0.5;entryY=1;entryDx=0;entryDy=0;strokeWidth=3;strokeColor=#CC00CC;" parent="1" source="qGfMKpQDj4KVWiZ2LK5q-57" target="qGfMKpQDj4KVWiZ2LK5q-52" edge="1">
                    <mxGeometry width="50" height="50" relative="1" as="geometry">
                        <mxPoint x="1780" y="384" as="sourcePoint"/>
                        <mxPoint x="1830" y="334" as="targetPoint"/>
                    </mxGeometry>
                </mxCell>
                <mxCell id="qGfMKpQDj4KVWiZ2LK5q-81" value="Pump 01" style="rounded=1;whiteSpace=wrap;html=1;fillColor=#660066;fontStyle=1;fontColor=#FFFFFF;" parent="1" vertex="1">
                    <mxGeometry x="1667" y="455" width="80" height="20" as="geometry"/>
                </mxCell>
                <mxCell id="qGfMKpQDj4KVWiZ2LK5q-82" value="Pump 01" style="rounded=1;whiteSpace=wrap;html=1;fillColor=#660066;fontStyle=1;fontColor=#FFFFFF;" parent="1" vertex="1">
                    <mxGeometry x="1667" y="554" width="80" height="20" as="geometry"/>
                </mxCell>
                <mxCell id="qGfMKpQDj4KVWiZ2LK5q-83" value="&lt;font style=&quot;font-size: 13px;&quot;&gt;Flow Indicating Transmitter (FIT)&amp;nbsp;&lt;/font&gt;" style="rounded=1;whiteSpace=wrap;html=1;fillColor=none;fontStyle=5;fontColor=#000000;strokeColor=none;" parent="1" vertex="1">
                    <mxGeometry x="1551" y="180" width="219" height="20" as="geometry"/>
                </mxCell>
                <mxCell id="qGfMKpQDj4KVWiZ2LK5q-130" value="&lt;font style=&quot;font-size: 22px;&quot;&gt;M&lt;/font&gt;" style="ellipse;whiteSpace=wrap;html=1;aspect=fixed;fillColor=#CCCCFF;" parent="1" vertex="1">
                    <mxGeometry x="1725" y="761" width="45" height="45" as="geometry"/>
                </mxCell>
                <mxCell id="qGfMKpQDj4KVWiZ2LK5q-134" value="Temp. Indicating Controller (TIC)&amp;nbsp;" style="rounded=1;whiteSpace=wrap;html=1;fillColor=#660066;fontStyle=1;fontColor=#FFFFFF;" parent="1" vertex="1">
                    <mxGeometry x="1913.75" y="945.5" width="208.5" height="20" as="geometry"/>
                </mxCell>
                <mxCell id="qGfMKpQDj4KVWiZ2LK5q-135" value="PID Controller" style="rounded=1;whiteSpace=wrap;html=1;fillColor=#660066;fontStyle=1;fontColor=#FFFFFF;" parent="1" vertex="1">
                    <mxGeometry x="1945.75" y="921" width="143.5" height="20" as="geometry"/>
                </mxCell>
                <mxCell id="qGfMKpQDj4KVWiZ2LK5q-139" value="&lt;b&gt;SA&lt;/b&gt;" style="ellipse;whiteSpace=wrap;html=1;aspect=fixed;fillColor=#FFCCFF;" parent="1" vertex="1">
                    <mxGeometry x="1932" y="686" width="34" height="34" as="geometry"/>
                </mxCell>
                <mxCell id="qGfMKpQDj4KVWiZ2LK5q-142" value="" style="endArrow=none;dashed=1;html=1;strokeWidth=3;rounded=1;exitX=0.5;exitY=0;exitDx=0;exitDy=0;entryX=1;entryY=0.5;entryDx=0;entryDy=0;curved=0;strokeColor=#CC00CC;" parent="1" source="qGfMKpQDj4KVWiZ2LK5q-143" target="qGfMKpQDj4KVWiZ2LK5q-139" edge="1">
                    <mxGeometry width="50" height="50" relative="1" as="geometry">
                        <mxPoint x="1890" y="735" as="sourcePoint"/>
                        <mxPoint x="1940" y="685" as="targetPoint"/>
                        <Array as="points">
                            <mxPoint x="2017" y="703"/>
                            <mxPoint x="1980" y="703"/>
                        </Array>
                    </mxGeometry>
                </mxCell>
                <mxCell id="qGfMKpQDj4KVWiZ2LK5q-143" value="&lt;table cellpadding=&quot;4&quot; cellspacing=&quot;0&quot; border=&quot;0&quot; style=&quot;font-size:1em;width:100%;height:100%;&quot;&gt;&lt;tbody&gt;&lt;tr&gt;&lt;td&gt;TIC&lt;/td&gt;&lt;/tr&gt;&lt;tr&gt;&lt;td&gt;001&lt;/td&gt;&lt;/tr&gt;&lt;/tbody&gt;&lt;/table&gt; " style="html=1;outlineConnect=0;align=center;dashed=0;aspect=fixed;shape=mxgraph.pid2inst.progLogCont;mounting=room;fillColor=#E5CCFF;" parent="1" vertex="1">
                    <mxGeometry x="1991" y="859" width="54" height="54" as="geometry"/>
                </mxCell>
                <mxCell id="qGfMKpQDj4KVWiZ2LK5q-144" value="" style="endArrow=none;dashed=1;html=1;rounded=0;exitX=1;exitY=0.5;exitDx=0;exitDy=0;entryX=0;entryY=0.5;entryDx=0;entryDy=0;strokeWidth=3;strokeColor=#CC00CC;" parent="1" source="qGfMKpQDj4KVWiZ2LK5q-163" target="qGfMKpQDj4KVWiZ2LK5q-143" edge="1">
                    <mxGeometry width="50" height="50" relative="1" as="geometry">
                        <mxPoint x="1820" y="745" as="sourcePoint"/>
                        <mxPoint x="1870" y="695" as="targetPoint"/>
                    </mxGeometry>
                </mxCell>
                <mxCell id="qGfMKpQDj4KVWiZ2LK5q-147" value="&lt;span style=&quot;font-size: 13px;&quot;&gt;Fan Cooling Unit&lt;/span&gt;" style="rounded=1;whiteSpace=wrap;html=1;fillColor=none;fontStyle=5;fontColor=#000000;strokeColor=none;" parent="1" vertex="1">
                    <mxGeometry x="1540" y="621" width="149" height="20" as="geometry"/>
                </mxCell>
                <mxCell id="qGfMKpQDj4KVWiZ2LK5q-148" value="Supply Air Temperature" style="rounded=1;whiteSpace=wrap;html=1;fillColor=#660066;fontStyle=1;fontColor=#FFFFFF;" parent="1" vertex="1">
                    <mxGeometry x="1818.25" y="687.75" width="100" height="30.5" as="geometry"/>
                </mxCell>
                <mxCell id="qGfMKpQDj4KVWiZ2LK5q-150" value="" style="endArrow=none;html=1;rounded=0;entryX=0.5;entryY=1;entryDx=0;entryDy=0;strokeWidth=3;strokeColor=#FF8000;" parent="1" target="qGfMKpQDj4KVWiZ2LK5q-139" edge="1">
                    <mxGeometry width="50" height="50" relative="1" as="geometry">
                        <mxPoint x="1949" y="782" as="sourcePoint"/>
                        <mxPoint x="2030" y="691" as="targetPoint"/>
                    </mxGeometry>
                </mxCell>
                <mxCell id="qGfMKpQDj4KVWiZ2LK5q-156" value="" style="shape=cylinder3;whiteSpace=wrap;html=1;boundedLbl=1;backgroundOutline=1;size=2.6666361490885038;fillColor=#0000FF;" parent="1" vertex="1">
                    <mxGeometry x="1876.25" y="806" width="10" height="115" as="geometry"/>
                </mxCell>
                <mxCell id="qGfMKpQDj4KVWiZ2LK5q-157" value="" style="shape=cylinder3;whiteSpace=wrap;html=1;boundedLbl=1;backgroundOutline=1;size=2.6666361490885038;fillColor=#00FFFF;" parent="1" vertex="1">
                    <mxGeometry x="1854" y="791" width="10" height="120" as="geometry"/>
                </mxCell>
                <mxCell id="qGfMKpQDj4KVWiZ2LK5q-151" value="" style="shape=cube;whiteSpace=wrap;html=1;boundedLbl=1;backgroundOutline=1;darkOpacity=0.05;darkOpacity2=0.1;fillColor=#0000FF;" parent="1" vertex="1">
                    <mxGeometry x="1851.25" y="728" width="40" height="89" as="geometry"/>
                </mxCell>
                <mxCell id="qGfMKpQDj4KVWiZ2LK5q-158" value="" style="shape=flexArrow;endArrow=classic;html=1;rounded=0;fillColor=#99FF99;" parent="1" edge="1">
                    <mxGeometry width="50" height="50" relative="1" as="geometry">
                        <mxPoint x="2071.25" y="775" as="sourcePoint"/>
                        <mxPoint x="2118.75" y="775" as="targetPoint"/>
                    </mxGeometry>
                </mxCell>
                <mxCell id="qGfMKpQDj4KVWiZ2LK5q-159" value="" style="shape=flexArrow;endArrow=classic;html=1;rounded=0;fillColor=#006600;" parent="1" edge="1">
                    <mxGeometry width="50" height="50" relative="1" as="geometry">
                        <mxPoint x="1595.25" y="775.16" as="sourcePoint"/>
                        <mxPoint x="1642.75" y="775.16" as="targetPoint"/>
                    </mxGeometry>
                </mxCell>
                <mxCell id="qGfMKpQDj4KVWiZ2LK5q-162" value="" style="rounded=1;whiteSpace=wrap;html=1;fillColor=#999999;" parent="1" vertex="1">
                    <mxGeometry x="1873" y="861" width="16" height="40" as="geometry"/>
                </mxCell>
                <mxCell id="qGfMKpQDj4KVWiZ2LK5q-160" value="" style="rounded=1;whiteSpace=wrap;html=1;fillColor=#999999;" parent="1" vertex="1">
                    <mxGeometry x="1867" y="861" width="28" height="10" as="geometry"/>
                </mxCell>
                <mxCell id="qGfMKpQDj4KVWiZ2LK5q-161" value="" style="rounded=1;whiteSpace=wrap;html=1;fillColor=#999999;" parent="1" vertex="1">
                    <mxGeometry x="1867" y="891" width="28" height="10" as="geometry"/>
                </mxCell>
                <mxCell id="qGfMKpQDj4KVWiZ2LK5q-163" value="" style="rounded=1;whiteSpace=wrap;html=1;fillColor=#FF8000;" parent="1" vertex="1">
                    <mxGeometry x="1906" y="871" width="14" height="30" as="geometry"/>
                </mxCell>
                <mxCell id="qGfMKpQDj4KVWiZ2LK5q-165" value="Chilled Water Supply" style="rounded=1;whiteSpace=wrap;html=1;fillColor=#33FFFF;fontStyle=1;fontColor=#000000;strokeColor=#000000;" parent="1" vertex="1">
                    <mxGeometry x="1698" y="856" width="143.5" height="20" as="geometry"/>
                </mxCell>
                <mxCell id="qGfMKpQDj4KVWiZ2LK5q-166" value="Space Temperature&lt;div&gt;(Thermostat)&lt;/div&gt;" style="rounded=1;whiteSpace=wrap;html=1;fillColor=#CCFFCC;fontStyle=1;fontColor=#000000;" parent="1" vertex="1">
                    <mxGeometry x="2080.75" y="810" width="143.5" height="41" as="geometry"/>
                </mxCell>
                <mxCell id="qGfMKpQDj4KVWiZ2LK5q-167" value="Chilled Water Return" style="rounded=1;whiteSpace=wrap;html=1;fillColor=#0000FF;fontStyle=1;fontColor=#FFFFFF;strokeColor=#000000;" parent="1" vertex="1">
                    <mxGeometry x="1698" y="891" width="143.5" height="20" as="geometry"/>
                </mxCell>
                <mxCell id="qGfMKpQDj4KVWiZ2LK5q-168" value="&lt;font style=&quot;font-size: 13px;&quot;&gt;Cooling Coil&lt;/font&gt;" style="rounded=1;whiteSpace=wrap;html=1;fillColor=none;fontStyle=5;fontColor=#000000;strokeColor=none;" parent="1" vertex="1">
                    <mxGeometry x="1792" y="762.5" width="59" height="20" as="geometry"/>
                </mxCell>
                <mxCell id="qGfMKpQDj4KVWiZ2LK5q-169" value="&lt;font style=&quot;font-size: 13px;&quot;&gt;RTD&lt;/font&gt;" style="rounded=1;whiteSpace=wrap;html=1;fillColor=none;fontStyle=5;fontColor=#000000;strokeColor=none;" parent="1" vertex="1">
                    <mxGeometry x="1942" y="760.5" width="59" height="20" as="geometry"/>
                </mxCell>
                <mxCell id="qGfMKpQDj4KVWiZ2LK5q-170" value="Return Air (RA)" style="rounded=1;whiteSpace=wrap;html=1;fillColor=#006600;fontStyle=1;fontColor=#FFFFFF;" parent="1" vertex="1">
                    <mxGeometry x="1561.25" y="806" width="98.75" height="20" as="geometry"/>
                </mxCell>
                <mxCell id="qGfMKpQDj4KVWiZ2LK5q-172" value="&lt;table cellpadding=&quot;4&quot; cellspacing=&quot;0&quot; border=&quot;0&quot; style=&quot;font-size:1em;width:100%;height:100%;&quot;&gt;&lt;tbody&gt;&lt;tr&gt;&lt;td&gt;TIC&lt;/td&gt;&lt;/tr&gt;&lt;tr&gt;&lt;td&gt;002&lt;/td&gt;&lt;/tr&gt;&lt;/tbody&gt;&lt;/table&gt; " style="html=1;outlineConnect=0;align=center;dashed=0;aspect=fixed;shape=mxgraph.pid2inst.progLogCont;mounting=room;fillColor=#E5CCFF;" parent="1" vertex="1">
                    <mxGeometry x="2125.25" y="625" width="54" height="54" as="geometry"/>
                </mxCell>
                <mxCell id="qGfMKpQDj4KVWiZ2LK5q-173" value="" style="shape=image;verticalLabelPosition=bottom;labelBackgroundColor=default;verticalAlign=top;aspect=fixed;imageAspect=0;image=https://cdn-icons-png.flaticon.com/512/1942/1942020.png;" parent="1" vertex="1">
                    <mxGeometry x="2123.25" y="746.25" width="58.5" height="58.5" as="geometry"/>
                </mxCell>
                <mxCell id="qGfMKpQDj4KVWiZ2LK5q-177" value="" style="endArrow=none;dashed=1;html=1;rounded=0;exitX=0.5;exitY=1;exitDx=0;exitDy=0;entryX=0.5;entryY=0;entryDx=0;entryDy=0;strokeWidth=3;strokeColor=#CC00CC;" parent="1" source="qGfMKpQDj4KVWiZ2LK5q-172" target="qGfMKpQDj4KVWiZ2LK5q-173" edge="1">
                    <mxGeometry width="50" height="50" relative="1" as="geometry">
                        <mxPoint x="1930" y="896" as="sourcePoint"/>
                        <mxPoint x="2001" y="896" as="targetPoint"/>
                    </mxGeometry>
                </mxCell>
                <mxCell id="qGfMKpQDj4KVWiZ2LK5q-178" value="" style="endArrow=none;dashed=1;html=1;rounded=1;exitX=0;exitY=0.5;exitDx=0;exitDy=0;entryX=0.5;entryY=0;entryDx=0;entryDy=0;strokeWidth=3;strokeColor=#CC00CC;curved=0;" parent="1" source="qGfMKpQDj4KVWiZ2LK5q-172" target="qGfMKpQDj4KVWiZ2LK5q-130" edge="1">
                    <mxGeometry width="50" height="50" relative="1" as="geometry">
                        <mxPoint x="2162" y="696" as="sourcePoint"/>
                        <mxPoint x="2163" y="756" as="targetPoint"/>
                        <Array as="points">
                            <mxPoint x="1748" y="652"/>
                        </Array>
                    </mxGeometry>
                </mxCell>
            </root>
        </mxGraphModel>
    </diagram>
</mxfile>